<svg width="37" height="38" viewBox="0 0 37 38" fill="none" xmlns="http://www.w3.org/2000/svg">
<g clip-path="url(#clip0)">
<path d="M35.1499 22.9294H29.5999V13.6794H35.1499C35.4905 13.6794 35.7666 13.4033 35.7666 13.0628V10.0226L36.9937 1.43372C37.0421 1.09664 36.808 0.784067 36.4709 0.735736C36.4418 0.731573 36.4125 0.729492 36.3832 0.729492H19.1166C18.7761 0.729415 18.5 1.00553 18.4999 1.34608C18.4999 1.37537 18.502 1.40466 18.5061 1.43372L19.7333 10.0226V13.0628C19.7333 13.4033 20.0094 13.6794 20.35 13.6794H25.9V22.9294H25.2833C24.2616 22.9294 23.4333 23.7577 23.4333 24.7794C23.4333 25.8011 24.2616 26.6294 25.2833 26.6294H25.9V27.8627H21.5833L22.1586 19.2294H22.8166C23.1572 19.2294 23.4333 18.9533 23.4333 18.6128V16.1461C23.4333 15.8055 23.1572 15.5294 22.8166 15.5294H18.4537C18.2588 14.1931 17.4508 13.0246 16.2695 12.3703C17.2472 10.196 16.2772 7.64076 14.1029 6.66303C11.9286 5.68531 9.37335 6.65533 8.39563 8.82968C8.22597 9.20693 8.11143 9.6066 8.05554 10.0165C4.67499 9.65085 1.638 12.0948 1.27232 15.4754C1.27039 15.4934 1.26846 15.5115 1.26669 15.5295H0.616725C0.276172 15.5295 6.10352e-05 15.8056 6.10352e-05 16.1462V18.6128C6.10352e-05 18.9534 0.276172 19.2295 0.616725 19.2295H1.27347L2.46672 37.1534C2.48822 37.478 2.75809 37.73 3.08338 37.7293H36.3832C36.7238 37.7293 36.9999 37.4532 36.9999 37.1127V24.7794C36.9999 23.7577 36.1716 22.9294 35.1499 22.9294ZM19.8277 1.96282H22.2V5.66281H23.4333V1.96282H24.6666V3.19615H25.9V1.96282H29.5999V3.81281H30.8333V1.96282H32.0666V5.66281H33.2999V1.96282H35.6722L34.6153 9.36279H20.8846L19.8277 1.96282ZM20.9666 12.4461V10.5961H34.5332V12.4461H20.9666ZM28.3666 13.6794V22.9294H27.1333V13.6794H28.3666ZM22.2 16.7628V17.9961H12.95V16.7628H22.2ZM7.99843 11.2516C8.16793 11.2727 8.3362 11.3025 8.50263 11.341C8.50941 11.341 8.51619 11.341 8.52297 11.341C9.2464 11.5112 9.92226 11.8419 10.5006 12.3086L11.2764 11.3497C10.6829 10.8738 10.0068 10.5114 9.28209 10.2804C9.45915 8.59119 10.9721 7.36534 12.6613 7.5424C14.3504 7.71946 15.5763 9.23237 15.3992 10.9216C15.347 11.4204 15.1734 11.899 14.8938 12.3154C14.7043 12.5983 14.7801 12.9814 15.0632 13.1708C15.1064 13.1997 15.1531 13.2231 15.2021 13.2404C16.2225 13.6006 16.9794 14.4693 17.1964 15.5294H12.3333C11.9928 15.5294 11.7167 15.8055 11.7167 16.1461V21.6961C11.7167 22.0366 11.4406 22.3127 11.1 22.3127C10.7595 22.3127 10.4833 22.0366 10.4833 21.6961V20.4627C10.4833 19.441 9.65509 18.6128 8.63336 18.6128C7.61162 18.6128 6.78337 19.441 6.78337 20.4627V24.7794C6.78337 25.1199 6.50725 25.3961 6.1667 25.3961C5.82615 25.3961 5.55004 25.1199 5.55004 24.7794V16.1461C5.55004 15.8055 5.27393 15.5294 4.93337 15.5294H2.50803C2.84288 12.832 5.30098 10.9168 7.99843 11.2516ZM1.23339 17.9961V16.7628H4.31671V17.9961H1.23339ZM17.2667 29.7127V36.496H3.66058L2.50927 19.2294H4.31671V24.7794C4.31671 25.8011 5.14497 26.6294 6.1667 26.6294C7.18844 26.6294 8.01669 25.8011 8.01669 24.7794V20.4627C8.01669 20.1222 8.2928 19.8461 8.63336 19.8461C8.97391 19.8461 9.25002 20.1222 9.25002 20.4627V21.6961C9.25002 22.7178 10.0783 23.5461 11.1 23.5461C12.1217 23.5461 12.95 22.7178 12.95 21.6961V19.2294H20.9241L20.35 27.8627H19.1166C18.0949 27.8627 17.2667 28.691 17.2667 29.7127ZM35.7666 36.496H33.9166V33.4127H32.6833V36.496H30.8333V33.4127H29.5999V36.496H27.7499V33.4127H26.5166V36.496H24.6666V33.4127H23.4333V36.496H21.5833V33.4127H20.35V36.496H18.5V31.5627H35.7666V36.496ZM35.7666 30.3294H18.5V29.7127C18.5 29.3722 18.7761 29.096 19.1166 29.096H32.6833C33.705 29.096 34.5332 28.2678 34.5332 27.246C34.5332 26.2243 33.705 25.3961 32.6833 25.3961H25.2833C24.9427 25.3961 24.6666 25.1199 24.6666 24.7794C24.6666 24.4388 24.9427 24.1627 25.2833 24.1627H35.1499C35.4905 24.1627 35.7666 24.4388 35.7666 24.7794V30.3294ZM27.1333 27.8627V26.6294H28.3666V27.8627H27.1333ZM29.5999 27.8627V26.6294H32.6833C33.0238 26.6294 33.2999 26.9055 33.2999 27.246C33.2999 27.5866 33.0238 27.8627 32.6833 27.8627H29.5999Z" fill="#69787B"/>
<path d="M2.46672 6.89519V5.66187H1.23339V6.89519H6.10352e-05V8.12852H1.23339V9.36185H2.46672V8.12852H3.70005V6.89519H2.46672Z" fill="#69787B"/>
<path d="M35.1499 17.9953V16.762H33.9166V17.9953H32.6833V19.2286H33.9166V20.4619H35.1499V19.2286H36.3832V17.9953H35.1499Z" fill="#69787B"/>
<path d="M11.7167 1.96184V0.728516H10.4833V1.96184H9.25002V3.19517H10.4833V4.4285H11.7167V3.19517H12.95V1.96184H11.7167Z" fill="#69787B"/>
<path d="M23.4333 6.89526H22.2V8.12859H23.4333V6.89526Z" fill="#69787B"/>
</g>
<defs>
<clipPath id="clip0">
<rect x="6.10352e-05" y="0.728516" width="37" height="37" fill="white"/>
</clipPath>
</defs>
</svg>
