<svg width="38" height="38" viewBox="0 0 38 38" fill="none" xmlns="http://www.w3.org/2000/svg">
<g clip-path="url(#clip0)">
<path d="M32.6485 26.7277L17.2332 11.3123C17.0112 11.0934 16.6813 11.0256 16.393 11.1458C16.1047 11.2646 15.9167 11.5467 15.9167 11.858V33.2021C15.9167 33.4966 16.0847 33.7648 16.3499 33.8943C16.615 34.0238 16.931 33.9914 17.1607 33.8095L21.0746 30.7496L24.4907 36.8972C24.6325 37.15 24.8945 37.2934 25.1659 37.2934C25.2815 37.2934 25.4002 37.2672 25.5112 37.2117L30.1358 34.8994C30.3239 34.8054 30.4657 34.6389 30.5274 34.4384C30.589 34.2365 30.5659 34.0191 30.4657 33.8357L27.247 28.0442H32.1029C32.4142 28.0442 32.6948 27.8561 32.815 27.5678C32.9352 27.2795 32.869 26.9481 32.6485 26.7277ZM25.9382 26.5042C25.6653 26.5042 25.4125 26.6491 25.2738 26.8849C25.135 27.1193 25.1304 27.4106 25.263 27.6495L28.7268 33.882L25.4819 35.5052L21.9872 29.2126C21.8777 29.0153 21.6866 28.875 21.4661 28.8303C21.4137 28.8195 21.3629 28.8149 21.312 28.8149C21.1424 28.8149 20.9729 28.8719 20.8372 28.9783L17.4581 31.6204V13.7186L30.2436 26.5042H25.9382Z" fill="#69787B"/>
<path d="M16.6874 0.293457C16.262 0.293457 15.9167 0.638785 15.9167 1.06425V5.68886C15.9167 6.11433 16.262 6.45965 16.6874 6.45965C17.1129 6.45965 17.4582 6.11433 17.4582 5.68886V1.06425C17.4582 0.638785 17.1129 0.293457 16.6874 0.293457Z" fill="#69787B"/>
<path d="M10.5212 11.0842H5.89662C5.47115 11.0842 5.12582 11.4296 5.12582 11.855C5.12582 12.2805 5.47115 12.6258 5.89662 12.6258H10.5212C10.9467 12.6258 11.292 12.2805 11.292 11.855C11.292 11.4296 10.9467 11.0842 10.5212 11.0842Z" fill="#69787B"/>
<path d="M27.4782 11.0842H22.8536C22.4281 11.0842 22.0828 11.4296 22.0828 11.855C22.0828 12.2805 22.4281 12.6258 22.8536 12.6258H27.4782C27.9037 12.6258 28.249 12.2805 28.249 11.855C28.249 11.4296 27.9037 11.0842 27.4782 11.0842Z" fill="#69787B"/>
<path d="M12.8721 6.94988L9.60102 3.68028C9.30042 3.37968 8.81172 3.37968 8.51112 3.68028C8.21053 3.98088 8.21053 4.46957 8.51112 4.77017L11.7822 8.03977C11.9333 8.18928 12.1306 8.26486 12.3279 8.26486C12.5253 8.26486 12.7226 8.19087 12.8721 8.03977C13.1727 7.73918 13.1727 7.25048 12.8721 6.94988Z" fill="#69787B"/>
<path d="M12.8721 15.6717C12.5715 15.3711 12.0828 15.3711 11.7822 15.6717L8.51112 18.9413C8.21053 19.2419 8.21053 19.7306 8.51112 20.0312C8.66222 20.1807 8.85949 20.2563 9.05683 20.2563C9.25417 20.2563 9.45144 20.1808 9.60102 20.0312L12.8721 16.7616C13.1727 16.461 13.1727 15.9723 12.8721 15.6717Z" fill="#69787B"/>
<path d="M24.8637 3.6802C24.5631 3.37808 24.0744 3.37808 23.7723 3.6802L20.5012 6.9498C20.2006 7.2504 20.2006 7.73909 20.5012 8.03969C20.6523 8.1892 20.8496 8.26478 21.0469 8.26478C21.2443 8.26478 21.4415 8.19079 21.5926 8.03969L24.8637 4.77009C25.1643 4.46949 25.1643 3.98239 24.8637 3.6802Z" fill="#69787B"/>
</g>
<defs>
<clipPath id="clip0">
<rect x="0.500061" y="0.293457" width="37" height="37" fill="white"/>
</clipPath>
</defs>
</svg>
