<svg width="37" height="38" viewBox="0 0 37 38" fill="none" xmlns="http://www.w3.org/2000/svg">
<g clip-path="url(#clip0)">
<path d="M30.217 2.14377H6.78392V0.910454C6.78392 0.661442 6.63397 0.435614 6.40363 0.340766C6.17298 0.244413 5.90771 0.298311 5.73126 0.474456L0.181315 6.0244C-0.0598688 6.26558 -0.0598688 6.65521 0.181315 6.89639L5.73126 12.4463C5.90831 12.6234 6.17358 12.677 6.40363 12.5803C6.63397 12.4852 6.78392 12.2596 6.78392 12.0103V10.777H30.217C31.2372 10.777 32.067 11.6072 32.067 12.627V20.6436C32.067 21.6637 31.2372 22.4936 30.217 22.4936H27.1337V16.9436C27.1337 16.6028 26.8582 16.327 26.5171 16.327H0.617314C0.276464 16.327 0.000653083 16.6028 0.000653083 16.9436V36.6767C0.000653083 37.0179 0.276464 37.2934 0.617314 37.2934H26.5171C26.8582 37.2934 27.1337 37.0179 27.1337 36.6767V26.1935H30.217C33.957 26.1935 37.0003 23.1503 37.0003 19.4103V8.92703C37.0003 5.18703 33.957 2.14377 30.217 2.14377ZM1.23397 32.3601H25.9004V33.5934H1.23397V32.3601ZM1.23397 28.0992C2.77984 28.36 4.00021 29.5809 4.26187 31.1268H1.23397V28.0992ZM25.9004 25.5769V26.8529C23.6731 27.1321 21.9063 28.8995 21.6262 31.1268H5.50814C5.22812 28.8995 3.46154 27.1327 1.23397 26.8529V21.8338C3.46154 21.5544 5.22812 19.7872 5.50814 17.5597H21.6271C21.9063 19.7872 23.6737 21.5538 25.901 21.8338V25.5769H25.9004ZM25.9004 28.0992V31.1268H22.8725C23.1342 29.5809 24.3545 28.3606 25.9004 28.0992ZM25.9004 20.5882C24.3545 20.3274 23.1342 19.1064 22.8725 17.5603H25.9004V20.5882ZM4.26187 17.5603C4.00021 19.1064 2.77984 20.3268 1.23397 20.5882V17.5603H4.26187ZM1.23397 36.0601V34.8268H25.9004V36.0601H1.23397ZM35.767 19.4103C35.767 22.471 33.2774 24.9602 30.217 24.9602H27.1337V23.7269H30.217C31.9171 23.7269 33.3003 22.3439 33.3003 20.6436V12.627C33.3003 10.927 31.9171 9.54369 30.217 9.54369H6.16726C5.82641 9.54369 5.5506 9.81951 5.5506 10.1604V10.5217L1.48931 6.46039L5.5506 2.39911V2.76043C5.5506 3.10158 5.82641 3.37709 6.16726 3.37709H30.217C33.2774 3.37709 35.767 5.86662 35.767 8.92703V19.4103Z" fill="#69787B"/>
<path d="M13.5671 20.0269C11.1874 20.0269 9.25043 21.9639 9.25043 24.3435C9.25043 26.7234 11.1874 28.6601 13.5671 28.6601C15.9467 28.6601 17.8837 26.7234 17.8837 24.3435C17.8837 21.9639 15.9467 20.0269 13.5671 20.0269ZM13.5671 27.4268C11.867 27.4268 10.4837 26.0438 10.4837 24.3435C10.4837 22.6434 11.867 21.2602 13.5671 21.2602C15.2671 21.2602 16.6504 22.6434 16.6504 24.3435C16.6504 26.0438 15.2671 27.4268 13.5671 27.4268Z" fill="#69787B"/>
<path d="M20.3503 23.7268H21.5837V24.9601H20.3503V23.7268Z" fill="#69787B"/>
<path d="M5.55048 23.7268H6.78381V24.9601H5.55048V23.7268Z" fill="#69787B"/>
<path d="M6.78381 4.61035H12.3338V5.84368H6.78381V4.61035Z" fill="#69787B"/>
<path d="M13.567 4.61035H14.8004V5.84369H13.567V4.61035Z" fill="#69787B"/>
<path d="M16.0337 4.61035H17.267V5.84369H16.0337V4.61035Z" fill="#69787B"/>
<path d="M18.5004 4.61035H19.7337V5.84369H18.5004V4.61035Z" fill="#69787B"/>
</g>
<defs>
<clipPath id="clip0">
<rect x="6.10352e-05" y="0.293457" width="37" height="37" fill="white"/>
</clipPath>
</defs>
</svg>
